ffmpeg started on 2025-04-16 at 11:54:32
Report written to "D:\Convert\FFMetrics\reports\psnr_report-1.txt"
Log level: 32
Command line:
ffmpeg -hide_banner -nostdin -r 24000/1001 -i "G:\\\xc0\xed\xe8\xec\xe5\\\xce\xed\xe3\xee\xe8\xed\xe3\xe8\\!_37_\xc7\xe8\xec\xe0_2025\\JamClub\\\xcf\xee\xe4\xed\xff\xf2\xe8\xe5 \xf3\xf0\xee\xe2\xed\xff \xe2 \xee\xe4\xe8\xed\xee\xf7\xea\xf3\\\xd2\xc2-2\\JamClub_Ore_dake_Level_Up_na_Ken_Season_2_10_1080p_HEVC.mkv" -r 24000/1001 -i "G:\\\xc0\xed\xe8\xec\xe5\\\xce\xed\xe3\xee\xe8\xed\xe3\xe8\\!_37_\xc7\xe8\xec\xe0_2025\\JamClub\\\xcf\xee\xe4\xed\xff\xf2\xe8\xe5 \xf3\xf0\xee\xe2\xed\xff \xe2 \xee\xe4\xe8\xed\xee\xf7\xea\xf3\\\xd2\xc2-2\\JamClub_Ore_dake_Level_Up_na_Ken_Season_2_10_1080p.mp4" -lavfi "psnr=stats_file='D\\:/Convert/FFMetrics/logs/psnr_logfile-1.txt'" -f null -
Input #0, matroska,webm, from 'G:\Аниме\Онгоинги\!_37_Зима_2025\JamClub\Поднятие уровня в одиночку\ТВ-2\JamClub_Ore_dake_Level_Up_na_Ken_Season_2_10_1080p_HEVC.mkv':
  Metadata:
    COMPATIBLE_BRANDS: isomiso2avc1mp41
    MAJOR_BRAND     : isom
    MINOR_VERSION   : 512
    ENCODER         : Lavf61.7.100
  Duration: 00:24:02.37, start: -0.001000, bitrate: 1533 kb/s
  Stream #0:0: Video: hevc (Main 10), yuv420p10le(tv, bt709, progressive), 1920x1080 [SAR 1:1 DAR 16:9], 23.98 fps, 23.98 tbr, 1k tbn (default)
      Metadata:
        HANDLER_NAME    : VideoHandler
        VENDOR_ID       : [0][0][0][0]
        ENCODER         : Lavc61.19.100 libx265
        BPS             : 1334039
        DURATION        : 00:24:02.232708333
        NUMBER_OF_FRAMES: 34579
        NUMBER_OF_BYTES : 240499391
        _STATISTICS_WRITING_APP: mkvpropedit v66.0.0 ('Josie') 64-bit
        _STATISTICS_WRITING_DATE_UTC: 2025-04-12 13:07:48
        _STATISTICS_TAGS: BPS DURATION NUMBER_OF_FRAMES NUMBER_OF_BYTES
  Stream #0:1(eng): Audio: aac (LC), 48000 Hz, stereo, fltp (default)
      Metadata:
        HANDLER_NAME    : SoundHandler
        VENDOR_ID       : [0][0][0][0]
        ENCODER         : Lavc61.19.100 aac
        BPS             : 195117
        DURATION        : 00:24:02.328000000
        NUMBER_OF_FRAMES: 67610
        NUMBER_OF_BYTES : 35177884
        _STATISTICS_WRITING_APP: mkvpropedit v66.0.0 ('Josie') 64-bit
        _STATISTICS_WRITING_DATE_UTC: 2025-04-12 13:07:48
        _STATISTICS_TAGS: BPS DURATION NUMBER_OF_FRAMES NUMBER_OF_BYTES
Input #1, mov,mp4,m4a,3gp,3g2,mj2, from 'G:\Аниме\Онгоинги\!_37_Зима_2025\JamClub\Поднятие уровня в одиночку\ТВ-2\JamClub_Ore_dake_Level_Up_na_Ken_Season_2_10_1080p.mp4':
  Metadata:
    major_brand     : isom
    minor_version   : 512
    compatible_brands: isomiso2avc1mp41
    encoder         : Lavf60.16.100
  Duration: 00:24:02.35, start: 0.000000, bitrate: 4979 kb/s
  Stream #1:0[0x1](und): Video: h264 (High) (avc1 / 0x31637661), yuv420p(progressive), 1920x1080 [SAR 1:1 DAR 16:9], 4781 kb/s, 23.98 fps, 23.98 tbr, 90k tbn (default)
      Metadata:
        handler_name    : VideoHandler
        vendor_id       : [0][0][0][0]
  Stream #1:1[0x2](eng): Audio: aac (LC) (mp4a / 0x6134706D), 48000 Hz, stereo, fltp, 191 kb/s (default)
      Metadata:
        handler_name    : SoundHandler
        vendor_id       : [0][0][0][0]
Stream mapping:
  Stream #0:0 (hevc) -> psnr
  Stream #1:0 (h264) -> psnr
  psnr:default -> Stream #0:0 (wrapped_avframe)
  Stream #0:1 -> #0:1 (aac (native) -> pcm_s16le (native))
Output #0, null, to 'pipe:':
  Metadata:
    COMPATIBLE_BRANDS: isomiso2avc1mp41
    MAJOR_BRAND     : isom
    MINOR_VERSION   : 512
    encoder         : Lavf61.7.100
  Stream #0:0: Video: wrapped_avframe, yuv420p10le(tv, bt709, progressive), 1920x1080 [SAR 1:1 DAR 16:9], q=2-31, 200 kb/s, 23.98 fps, 23.98 tbn
      Metadata:
        encoder         : Lavc61.19.100 wrapped_avframe
  Stream #0:1(eng): Audio: pcm_s16le, 48000 Hz, stereo, s16, 1536 kb/s (default)
      Metadata:
        HANDLER_NAME    : SoundHandler
        VENDOR_ID       : [0][0][0][0]
        _STATISTICS_TAGS: BPS DURATION NUMBER_OF_FRAMES NUMBER_OF_BYTES
        BPS             : 195117
        DURATION        : 00:24:02.328000000
        NUMBER_OF_FRAMES: 67610
        NUMBER_OF_BYTES : 35177884
        _STATISTICS_WRITING_APP: mkvpropedit v66.0.0 ('Josie') 64-bit
        _STATISTICS_WRITING_DATE_UTC: 2025-04-12 13:07:48
        encoder         : Lavc61.19.100 pcm_s16le
frame=  114 fps=0.0 q=-0.0 size=N/A time=00:00:04.75 bitrate=N/A speed=9.33x    frame=  283 fps=273 q=-0.0 size=N/A time=00:00:11.80 bitrate=N/A speed=11.4x    frame=  479 fps=310 q=-0.0 size=N/A time=00:00:19.97 bitrate=N/A speed=12.9x    frame=  705 fps=341 q=-0.0 size=N/A time=00:00:29.40 bitrate=N/A speed=14.2x    frame=  939 fps=365 q=-0.0 size=N/A time=00:00:39.16 bitrate=N/A speed=15.2x    frame= 1163 fps=376 q=-0.0 size=N/A time=00:00:48.50 bitrate=N/A speed=15.7x    frame= 1344 fps=373 q=-0.0 size=N/A time=00:00:56.05 bitrate=N/A speed=15.6x    frame= 1559 fps=378 q=-0.0 size=N/A time=00:01:05.02 bitrate=N/A speed=15.8x    frame= 1761 fps=380 q=-0.0 size=N/A time=00:01:13.44 bitrate=N/A speed=15.9x    frame= 1946 fps=377 q=-0.0 size=N/A time=00:01:21.16 bitrate=N/A speed=15.7x    frame= 2107 fps=372 q=-0.0 size=N/A time=00:01:27.87 bitrate=N/A speed=15.5x    frame= 2282 fps=369 q=-0.0 size=N/A time=00:01:35.17 bitrate=N/A speed=15.4x    frame= 2482 fps=370 q=-0.0 size=N/A time=00:01:43.52 bitrate=N/A speed=15.4x    frame= 2647 fps=367 q=-0.0 size=N/A time=00:01:50.40 bitrate=N/A speed=15.3x    frame= 2828 fps=366 q=-0.0 size=N/A time=00:01:57.95 bitrate=N/A speed=15.3x    frame= 2980 fps=362 q=-0.0 size=N/A time=00:02:04.29 bitrate=N/A speed=15.1x    frame= 3155 fps=360 q=-0.0 size=N/A time=00:02:11.58 bitrate=N/A speed=  15x    frame= 3375 fps=364 q=-0.0 size=N/A time=00:02:20.76 bitrate=N/A speed=15.2x    frame= 3582 fps=366 q=-0.0 size=N/A time=00:02:29.39 bitrate=N/A speed=15.3x    frame= 3774 fps=366 q=-0.0 size=N/A time=00:02:37.40 bitrate=N/A speed=15.3x    frame= 3980 fps=367 q=-0.0 size=N/A time=00:02:45.99 bitrate=N/A speed=15.3x    frame= 4187 fps=369 q=-0.0 size=N/A time=00:02:54.63 bitrate=N/A speed=15.4x    frame= 4385 fps=370 q=-0.0 size=N/A time=00:03:02.89 bitrate=N/A speed=15.4x    frame= 4636 fps=374 q=-0.0 size=N/A time=00:03:13.35 bitrate=N/A speed=15.6x    frame= 4814 fps=373 q=-0.0 size=N/A time=00:03:20.78 bitrate=N/A speed=15.6x    frame= 4954 fps=369 q=-0.0 size=N/A time=00:03:26.62 bitrate=N/A speed=15.4x    frame= 5176 fps=371 q=-0.0 size=N/A time=00:03:35.88 bitrate=N/A speed=15.5x    frame= 5410 fps=374 q=-0.0 size=N/A time=00:03:45.64 bitrate=N/A speed=15.6x    frame= 5629 fps=376 q=-0.0 size=N/A time=00:03:54.77 bitrate=N/A speed=15.7x    frame= 5834 fps=377 q=-0.0 size=N/A time=00:04:03.32 bitrate=N/A speed=15.7x    frame= 6067 fps=379 q=-0.0 size=N/A time=00:04:13.04 bitrate=N/A speed=15.8x    frame= 6306 fps=382 q=-0.0 size=N/A time=00:04:23.01 bitrate=N/A speed=15.9x    frame= 6538 fps=384 q=-0.0 size=N/A time=00:04:32.68 bitrate=N/A speed=  16x    frame= 6745 fps=385 q=-0.0 size=N/A time=00:04:41.32 bitrate=N/A speed=  16x    frame= 6952 fps=385 q=-0.0 size=N/A time=00:04:49.95 bitrate=N/A speed=  16x    frame= 7147 fps=385 q=-0.0 size=N/A time=00:04:58.08 bitrate=N/A speed=  16x    frame= 7361 fps=386 q=-0.0 size=N/A time=00:05:07.01 bitrate=N/A speed=16.1x    frame= 7579 fps=387 q=-0.0 size=N/A time=00:05:16.10 bitrate=N/A speed=16.1x    frame= 7836 fps=389 q=-0.0 size=N/A time=00:05:26.82 bitrate=N/A speed=16.2x    frame= 8039 fps=390 q=-0.0 size=N/A time=00:05:35.29 bitrate=N/A speed=16.3x    frame= 8291 fps=392 q=-0.0 size=N/A time=00:05:45.80 bitrate=N/A speed=16.3x    frame= 8478 fps=391 q=-0.0 size=N/A time=00:05:53.60 bitrate=N/A speed=16.3x    frame= 8733 fps=394 q=-0.0 size=N/A time=00:06:04.23 bitrate=N/A speed=16.4x    frame= 8972 fps=395 q=-0.0 size=N/A time=00:06:14.20 bitrate=N/A speed=16.5x    frame= 9206 fps=397 q=-0.0 size=N/A time=00:06:23.96 bitrate=N/A speed=16.5x    frame= 9479 fps=399 q=-0.0 size=N/A time=00:06:35.35 bitrate=N/A speed=16.7x    frame= 9744 fps=402 q=-0.0 size=N/A time=00:06:46.40 bitrate=N/A speed=16.8x    frame= 9994 fps=404 q=-0.0 size=N/A time=00:06:56.83 bitrate=N/A speed=16.8x    frame=10233 fps=405 q=-0.0 size=N/A time=00:07:06.80 bitrate=N/A speed=16.9x    frame=10496 fps=407 q=-0.0 size=N/A time=00:07:17.77 bitrate=N/A speed=  17x    frame=10749 fps=408 q=-0.0 size=N/A time=00:07:28.32 bitrate=N/A speed=  17x    frame=10987 fps=410 q=-0.0 size=N/A time=00:07:38.24 bitrate=N/A speed=17.1x    frame=11257 fps=412 q=-0.0 size=N/A time=00:07:49.51 bitrate=N/A speed=17.2x    frame=11500 fps=413 q=-0.0 size=N/A time=00:07:59.64 bitrate=N/A speed=17.2x    frame=11773 fps=415 q=-0.0 size=N/A time=00:08:11.03 bitrate=N/A speed=17.3x    frame=12030 fps=416 q=-0.0 size=N/A time=00:08:21.75 bitrate=N/A speed=17.4x    frame=12264 fps=417 q=-0.0 size=N/A time=00:08:31.51 bitrate=N/A speed=17.4x    frame=12475 fps=417 q=-0.0 size=N/A time=00:08:40.31 bitrate=N/A speed=17.4x    frame=12680 fps=417 q=-0.0 size=N/A time=00:08:48.86 bitrate=N/A speed=17.4x    frame=12843 fps=415 q=-0.0 size=N/A time=00:08:55.66 bitrate=N/A speed=17.3x    frame=13043 fps=415 q=-0.0 size=N/A time=00:09:04.00 bitrate=N/A speed=17.3x    frame=13276 fps=415 q=-0.0 size=N/A time=00:09:13.71 bitrate=N/A speed=17.3x    frame=13492 fps=415 q=-0.0 size=N/A time=00:09:22.72 bitrate=N/A speed=17.3x    frame=13744 fps=416 q=-0.0 size=N/A time=00:09:33.23 bitrate=N/A speed=17.4x    frame=14011 fps=418 q=-0.0 size=N/A time=00:09:44.37 bitrate=N/A speed=17.4x    frame=14246 fps=418 q=-0.0 size=N/A time=00:09:54.17 bitrate=N/A speed=17.5x    frame=14478 fps=419 q=-0.0 size=N/A time=00:10:03.85 bitrate=N/A speed=17.5x    frame=14701 fps=419 q=-0.0 size=N/A time=00:10:13.15 bitrate=N/A speed=17.5x    frame=14949 fps=420 q=-0.0 size=N/A time=00:10:23.49 bitrate=N/A speed=17.5x    frame=15205 fps=421 q=-0.0 size=N/A time=00:10:34.17 bitrate=N/A speed=17.6x    frame=15411 fps=421 q=-0.0 size=N/A time=00:10:42.76 bitrate=N/A speed=17.5x    frame=15656 fps=422 q=-0.0 size=N/A time=00:10:53.02 bitrate=N/A speed=17.6x    frame=15916 fps=423 q=-0.0 size=N/A time=00:11:03.87 bitrate=N/A speed=17.6x    frame=16167 fps=423 q=-0.0 size=N/A time=00:11:14.29 bitrate=N/A speed=17.7x    frame=16416 fps=424 q=-0.0 size=N/A time=00:11:24.68 bitrate=N/A speed=17.7x    frame=16658 fps=425 q=-0.0 size=N/A time=00:11:34.77 bitrate=N/A speed=17.7x    frame=16927 fps=426 q=-0.0 size=N/A time=00:11:45.99 bitrate=N/A speed=17.8x    frame=17175 fps=427 q=-0.0 size=N/A time=00:11:56.34 bitrate=N/A speed=17.8x    frame=17427 fps=428 q=-0.0 size=N/A time=00:12:06.85 bitrate=N/A speed=17.8x    frame=17666 fps=428 q=-0.0 size=N/A time=00:12:16.81 bitrate=N/A speed=17.9x    frame=17916 fps=429 q=-0.0 size=N/A time=00:12:27.24 bitrate=N/A speed=17.9x    frame=18122 fps=429 q=-0.0 size=N/A time=00:12:35.83 bitrate=N/A speed=17.9x    frame=18331 fps=428 q=-0.0 size=N/A time=00:12:44.55 bitrate=N/A speed=17.9x    frame=18560 fps=428 q=-0.0 size=N/A time=00:12:54.10 bitrate=N/A speed=17.9x    frame=18736 fps=427 q=-0.0 size=N/A time=00:13:01.48 bitrate=N/A speed=17.8x    frame=18963 fps=427 q=-0.0 size=N/A time=00:13:10.91 bitrate=N/A speed=17.8x    frame=19174 fps=427 q=-0.0 size=N/A time=00:13:19.71 bitrate=N/A speed=17.8x    frame=19405 fps=427 q=-0.0 size=N/A time=00:13:29.35 bitrate=N/A speed=17.8x    frame=19613 fps=427 q=-0.0 size=N/A time=00:13:38.02 bitrate=N/A speed=17.8x    frame=19848 fps=427 q=-0.0 size=N/A time=00:13:47.82 bitrate=N/A speed=17.8x    frame=20086 fps=428 q=-0.0 size=N/A time=00:13:57.75 bitrate=N/A speed=17.8x    frame=20335 fps=428 q=-0.0 size=N/A time=00:14:08.18 bitrate=N/A speed=17.9x    frame=20592 fps=429 q=-0.0 size=N/A time=00:14:18.85 bitrate=N/A speed=17.9x    frame=20808 fps=429 q=-0.0 size=N/A time=00:14:27.86 bitrate=N/A speed=17.9x    frame=21074 fps=430 q=-0.0 size=N/A time=00:14:38.96 bitrate=N/A speed=17.9x    frame=21265 fps=429 q=-0.0 size=N/A time=00:14:46.92 bitrate=N/A speed=17.9x    frame=21530 fps=430 q=-0.0 size=N/A time=00:14:57.98 bitrate=N/A speed=17.9x    frame=21783 fps=431 q=-0.0 size=N/A time=00:15:08.57 bitrate=N/A speed=  18x    frame=22018 fps=431 q=-0.0 size=N/A time=00:15:18.33 bitrate=N/A speed=  18x    frame=22278 fps=432 q=-0.0 size=N/A time=00:15:29.17 bitrate=N/A speed=  18x    frame=22523 fps=432 q=-0.0 size=N/A time=00:15:39.43 bitrate=N/A speed=  18x    frame=22778 fps=433 q=-0.0 size=N/A time=00:15:50.03 bitrate=N/A speed=18.1x    frame=23028 fps=433 q=-0.0 size=N/A time=00:16:00.45 bitrate=N/A speed=18.1x    frame=23271 fps=434 q=-0.0 size=N/A time=00:16:10.59 bitrate=N/A speed=18.1x    frame=23532 fps=434 q=-0.0 size=N/A time=00:16:21.48 bitrate=N/A speed=18.1x    frame=23785 fps=435 q=-0.0 size=N/A time=00:16:32.03 bitrate=N/A speed=18.1x    frame=24036 fps=435 q=-0.0 size=N/A time=00:16:42.50 bitrate=N/A speed=18.2x    frame=24282 fps=436 q=-0.0 size=N/A time=00:16:52.76 bitrate=N/A speed=18.2x    frame=24512 fps=436 q=-0.0 size=N/A time=00:17:02.35 bitrate=N/A speed=18.2x    frame=24726 fps=436 q=-0.0 size=N/A time=00:17:11.28 bitrate=N/A speed=18.2x    frame=24988 fps=436 q=-0.0 size=N/A time=00:17:22.20 bitrate=N/A speed=18.2x    frame=25251 fps=437 q=-0.0 size=N/A time=00:17:33.17 bitrate=N/A speed=18.2x    frame=25509 fps=438 q=-0.0 size=N/A time=00:17:43.93 bitrate=N/A speed=18.2x    frame=25777 fps=438 q=-0.0 size=N/A time=00:17:55.11 bitrate=N/A speed=18.3x    frame=26030 fps=439 q=-0.0 size=N/A time=00:18:05.66 bitrate=N/A speed=18.3x    frame=26258 fps=439 q=-0.0 size=N/A time=00:18:15.17 bitrate=N/A speed=18.3x    frame=26480 fps=439 q=-0.0 size=N/A time=00:18:24.43 bitrate=N/A speed=18.3x    frame=26709 fps=439 q=-0.0 size=N/A time=00:18:33.98 bitrate=N/A speed=18.3x    frame=26922 fps=439 q=-0.0 size=N/A time=00:18:42.87 bitrate=N/A speed=18.3x    frame=27141 fps=438 q=-0.0 size=N/A time=00:18:52.00 bitrate=N/A speed=18.3x    frame=27330 fps=438 q=-0.0 size=N/A time=00:18:59.88 bitrate=N/A speed=18.3x    frame=27563 fps=438 q=-0.0 size=N/A time=00:19:09.60 bitrate=N/A speed=18.3x    frame=27800 fps=438 q=-0.0 size=N/A time=00:19:19.49 bitrate=N/A speed=18.3x    frame=28043 fps=438 q=-0.0 size=N/A time=00:19:29.62 bitrate=N/A speed=18.3x    frame=28289 fps=439 q=-0.0 size=N/A time=00:19:39.88 bitrate=N/A speed=18.3x    frame=28494 fps=438 q=-0.0 size=N/A time=00:19:48.43 bitrate=N/A speed=18.3x    frame=28719 fps=438 q=-0.0 size=N/A time=00:19:57.82 bitrate=N/A speed=18.3x    frame=28958 fps=439 q=-0.0 size=N/A time=00:20:07.78 bitrate=N/A speed=18.3x    frame=29157 fps=438 q=-0.0 size=N/A time=00:20:16.08 bitrate=N/A speed=18.3x    frame=29404 fps=438 q=-0.0 size=N/A time=00:20:26.39 bitrate=N/A speed=18.3x    frame=29611 fps=438 q=-0.0 size=N/A time=00:20:35.06 bitrate=N/A speed=18.3x    frame=29866 fps=439 q=-0.0 size=N/A time=00:20:45.66 bitrate=N/A speed=18.3x    frame=30062 fps=438 q=-0.0 size=N/A time=00:20:53.83 bitrate=N/A speed=18.3x    frame=30276 fps=438 q=-0.0 size=N/A time=00:21:02.76 bitrate=N/A speed=18.3x    frame=30497 fps=438 q=-0.0 size=N/A time=00:21:11.97 bitrate=N/A speed=18.3x    frame=30729 fps=438 q=-0.0 size=N/A time=00:21:21.65 bitrate=N/A speed=18.3x    frame=30956 fps=438 q=-0.0 size=N/A time=00:21:31.12 bitrate=N/A speed=18.3x    frame=31212 fps=438 q=-0.0 size=N/A time=00:21:41.80 bitrate=N/A speed=18.3x    frame=31466 fps=439 q=-0.0 size=N/A time=00:21:52.39 bitrate=N/A speed=18.3x    frame=31685 fps=439 q=-0.0 size=N/A time=00:22:01.52 bitrate=N/A speed=18.3x    frame=31957 fps=439 q=-0.0 size=N/A time=00:22:12.87 bitrate=N/A speed=18.3x    frame=32189 fps=439 q=-0.0 size=N/A time=00:22:22.54 bitrate=N/A speed=18.3x    frame=32395 fps=439 q=-0.0 size=N/A time=00:22:31.14 bitrate=N/A speed=18.3x    frame=32599 fps=439 q=-0.0 size=N/A time=00:22:39.64 bitrate=N/A speed=18.3x    frame=32828 fps=439 q=-0.0 size=N/A time=00:22:49.20 bitrate=N/A speed=18.3x    frame=33026 fps=439 q=-0.0 size=N/A time=00:22:57.45 bitrate=N/A speed=18.3x    frame=33236 fps=438 q=-0.0 size=N/A time=00:23:06.21 bitrate=N/A speed=18.3x    frame=33441 fps=438 q=-0.0 size=N/A time=00:23:14.76 bitrate=N/A speed=18.3x    frame=33590 fps=437 q=-0.0 size=N/A time=00:23:20.98 bitrate=N/A speed=18.2x    frame=33757 fps=436 q=-0.0 size=N/A time=00:23:27.94 bitrate=N/A speed=18.2x    frame=33948 fps=436 q=-0.0 size=N/A time=00:23:35.91 bitrate=N/A speed=18.2x    frame=34165 fps=436 q=-0.0 size=N/A time=00:23:44.96 bitrate=N/A speed=18.2x    frame=34378 fps=436 q=-0.0 size=N/A time=00:23:53.84 bitrate=N/A speed=18.2x    frame=34556 fps=435 q=-0.0 size=N/A time=00:24:01.27 bitrate=N/A speed=18.1x    [Parsed_psnr_0 @ 000001e5453d3740] PSNR y:47.195733 u:49.893396 v:49.929605 average:47.927011 min:36.446370 max:inf
[out#0/null @ 000001e54539b8c0] video:14858KiB audio:270440KiB subtitle:0KiB other streams:0KiB global headers:0KiB muxing overhead: unknown
frame=34579 fps=435 q=-0.0 Lsize=N/A time=00:24:02.23 bitrate=N/A speed=18.1x    
